HIERARCHY
ROOT Hips
{
	OFFSET -3.958830 18.904000 13.208200
	CHANNELS 6 Xposition Yposition Zposition Zrotation Yrotation Xrotation 
	JOINT LHipJoint
	{
		OFFSET 0.000000 0.000000 0.000000
		CHANNELS 3 Zrotation Yrotation Xrotation
		JOINT LeftUpLeg
		{
			OFFSET 1.800000 -1.400000 0.085000
			CHANNELS 3 Zrotation Yrotation Xrotation
			JOINT LeftLeg
			{
				OFFSET 2.215000 -6.000000 0.000000
				CHANNELS 3 Zrotation Yrotation Xrotation
				JOINT LeftFoot
				{
					OFFSET 2.500000 -6.900000 0.000000
					CHANNELS 3 Zrotation Yrotation Xrotation
					JOINT LeftToeBase
					{
						OFFSET 0.200000 -0.500000 1.950000
						CHANNELS 3 Zrotation Yrotation Xrotation
						End Site
						{
							OFFSET 0.000000 0.000000 0.000000
						}
					}
				}
			}
		}
	}
	JOINT RHipJoint
	{
		OFFSET 0.000000 0.000000 0.000000
		CHANNELS 3 Zrotation Yrotation Xrotation
		JOINT RightUpLeg
		{
			OFFSET -1.800000 -1.400000 0.085000
			CHANNELS 3 Zrotation Yrotation Xrotation
			JOINT RightLeg
			{
				OFFSET -2.215000 -6.000000 0.000000
				CHANNELS 3 Zrotation Yrotation Xrotation
				JOINT RightFoot
				{
					OFFSET -2.500000 -6.900000 0.000000
					CHANNELS 3 Zrotation Yrotation Xrotation
					JOINT RightToeBase
					{
						OFFSET -0.200000 -0.500000 1.950000
						CHANNELS 3 Zrotation Yrotation Xrotation
						End Site
						{
							OFFSET 0.000000 0.000000 0.000000
						}
					}
				}
			}
		}
	}
	JOINT LowerBack
	{
		OFFSET 0.000000 0.000000 0.000000
		CHANNELS 3 Zrotation Yrotation Xrotation
		JOINT Spine
		{
			OFFSET -0.087000 1.940000 -0.288900
			CHANNELS 3 Zrotation Yrotation Xrotation
			JOINT Spine1
			{
				OFFSET 0.000000 1.950000 0.060000
				CHANNELS 3 Zrotation Yrotation Xrotation
				JOINT Neck
				{
					OFFSET 0.000000 0.000000 0.000000
					CHANNELS 3 Zrotation Yrotation Xrotation
					JOINT Neck1
					{
						OFFSET 0.000000 1.600000 0.340000
						CHANNELS 3 Zrotation Yrotation Xrotation
						JOINT Head
						{
							OFFSET 0.000000 1.667000 -0.240000
							CHANNELS 3 Zrotation Yrotation Xrotation
							End Site
							{
								OFFSET 0.000000 0.000000 0.000000
							}
						}
					}
				}
				JOINT LeftShoulder
				{
					OFFSET 0.000000 0.000000 0.000000
					CHANNELS 3 Zrotation Yrotation Xrotation
					JOINT LeftArm
					{
						OFFSET 2.700000 1.550000 -0.730000
						CHANNELS 3 Zrotation Yrotation Xrotation
						JOINT LeftForeArm
						{
							OFFSET 5.450000 0.000000 0.000000
							CHANNELS 3 Zrotation Yrotation Xrotation
							JOINT LeftHand
							{
								OFFSET 3.450000 0.000000 0.000000
								CHANNELS 3 Zrotation Yrotation Xrotation
								JOINT LeftHandIndex1
								{
									OFFSET 0.750000 0.000000 0.000000
									CHANNELS 3 Zrotation Yrotation Xrotation
									End Site
									{
										OFFSET 0.000000 0.000000 0.000000
									}
								}
							}
						}
					}
				}
				JOINT RightShoulder
				{
					OFFSET 0.000000 0.000000 0.000000
					CHANNELS 3 Zrotation Yrotation Xrotation
					JOINT RightArm
					{
						OFFSET -2.700000 1.550000 -0.730000
						CHANNELS 3 Zrotation Yrotation Xrotation
						JOINT RightForeArm
						{
							OFFSET -5.450000 0.000000 0.000000
							CHANNELS 3 Zrotation Yrotation Xrotation
							JOINT RightHand
							{
								OFFSET -3.450000 0.000000 0.000000
								CHANNELS 3 Zrotation Yrotation Xrotation
								JOINT RightHandIndex1
								{
									OFFSET -0.750000 0.000000 0.000000
									CHANNELS 3 Zrotation Yrotation Xrotation
									End Site
									{
										OFFSET 0.000000 0.000000 0.000000
									}
								}
							}
						}
					}
				}
			}
		}
	}
}
MOTION
Frames: 4
Frame Time: 0.016667
1.150830 16.731080 -1.795460 9.638822 -23.020912 4.466911 -15.580883 10.827779 6.709281 19.085090 -7.989575 -46.222520 -27.506834 27.082896 52.101992 0.955858 13.786926 -0.153789 0.840700 0.270720 0.885200 18.219738 -9.653233 1.709951 -12.105098 2.768316 -20.997139 2.731617 -4.196840 14.228320 -0.260221 -2.531176 3.626315 0.285950 -0.082440 0.318640 -3.120156 -1.328046 -8.901806 11.169594 1.391480 29.839961 -0.252900 5.295388 6.087130 4.658469 4.289969 -6.288451 7.084122 1.870203 31.817221 -11.828800 10.373550 -23.254210 -26.076513 0.779391 1.376877 -36.788169 18.571241 -14.191007 -73.203195 -58.340396 33.485443 -3.537885 3.460449 0.979640 0.075280 0.166830 0.216550 16.489886 -1.742265 2.219041 35.855296 -6.774617 -13.335740 69.751927 64.843725 33.587690 1.797630 -1.751598 -0.319360 0.224370 -0.172170 -0.663680 
1.245630 16.689860 -1.776340 9.005200 -22.200270 5.961961 -15.417134 10.892508 6.311595 17.029316 -7.686495 -45.302880 -24.342787 22.001640 46.332527 0.429912 12.079683 0.330236 0.835520 0.273320 0.848580 18.335676 -10.007540 1.857699 -10.908513 3.076004 -21.884337 2.251603 -4.304917 16.289148 -0.228899 -2.690354 3.576130 0.326780 0.001160 0.321760 -3.479885 -0.685149 -8.631100 12.858224 1.883719 25.971669 -0.709615 5.367927 6.871093 4.406401 4.332731 -5.943707 7.317636 1.432799 29.806019 -10.864360 9.502540 -21.117520 -25.818240 1.061793 1.518178 -35.339378 18.332694 -12.968372 -78.381992 -60.859483 38.942764 -3.640354 3.499121 0.916910 0.147850 0.099850 0.236550 16.696859 -2.416810 1.593680 36.415840 -5.818238 -12.968655 60.637474 61.160100 26.737972 1.641382 -1.858656 -0.343420 0.253680 -0.154940 -0.645720 
1.334960 16.636720 -1.750990 8.380723 -21.250344 7.120038 -15.230288 11.028476 5.776738 14.602383 -7.145051 -43.472630 -20.843400 16.965880 39.312542 -0.113700 10.033170 0.978823 0.817070 0.265980 0.777850 18.453827 -10.391971 2.040351 -9.899026 3.246614 -21.898719 2.351780 -4.373562 16.903655 -0.198949 -2.850839 3.534362 0.358430 0.108150 0.334120 -3.864413 -0.048558 -8.302014 14.530784 2.711115 22.171765 -1.035208 5.705274 7.868058 4.076933 4.399571 -5.706426 7.572753 0.908306 28.223227 -9.338400 8.260430 -18.651930 -25.684178 1.081414 1.763542 -33.844615 18.030068 -11.633424 -87.531535 -64.742967 48.793841 -3.799808 3.504508 0.841030 0.227970 0.022010 0.264120 17.163270 -2.841348 1.251613 36.698907 -5.770408 -12.725305 53.817927 57.540334 21.528242 1.540740 -1.901046 -0.359590 0.284190 -0.121330 -0.609490 
1.431410 16.537790 -1.717580 7.934243 -20.348430 9.103177 -15.075034 10.986052 5.300708 12.390269 -6.714758 -42.860904 -17.145216 12.958461 33.043904 -0.607507 8.204393 1.622024 0.787090 0.248690 0.699290 18.594258 -10.660490 2.211115 -9.284351 3.491786 -22.734259 2.694816 -4.326736 16.347769 -0.133522 -2.923539 3.528587 0.414690 0.251850 0.338770 -4.288692 0.676972 -7.923094 15.726559 3.812473 16.831343 -1.170117 5.872321 9.073501 3.715420 4.382837 -5.216060 7.718582 0.133064 26.210227 -8.616070 6.550190 -16.057680 -24.358838 2.052649 1.737440 -33.337267 17.513074 -10.327350 -95.608892 -67.450646 58.176157 -4.025597 3.390048 0.755010 0.344640 -0.084470 0.287390 16.620254 -4.328539 0.638361 38.400316 -5.132733 -12.099752 47.217798 53.591337 16.913503 1.429252 -1.899497 -0.409200 0.357420 -0.062820 -0.582110 
